<?xml version="1.0" encoding="UTF-8"?>
<svg width="22px" height="13px" viewBox="0 0 22 13" version="1.1" xmlns="http://www.w3.org/2000/svg" xmlns:xlink="http://www.w3.org/1999/xlink">
    <!-- Generator: Sketch 42 (36781) - http://www.bohemiancoding.com/sketch -->
    <title>arrow-left</title>
    <desc>Created with Sketch.</desc>
    <defs></defs>
    <g id="Bar-Preview" stroke="none" stroke-width="1" fill="none" fill-rule="evenodd">
        <g id="Desktop" transform="translate(-680.000000, -73.000000)" fill="#FFFFFF">
            <g id="icons/arrow-left" transform="translate(680.000000, 73.000000)">
                <path d="M0,6.46043823 C0,6.61819823 0.0956533333,6.8271849 0.191306667,6.9278249 L5.63130667,12.7078249 C5.88426667,12.9698516 6.29725333,13.0002249 6.59282667,12.7345716 C6.85666667,12.4952116 6.86392,12.0314516 6.61957333,11.7730516 L2.25261333,7.14043823 L20.4,7.14043823 C20.77536,7.14043823 21.08,6.83579823 21.08,6.46043823 C21.08,6.08507823 20.77536,5.78043823 20.4,5.78043823 L12.2126807,5.78043823 L2.25261333,5.78043823 L6.61957333,1.1478249 C6.86392,0.889424898 6.84624,0.436091564 6.59282667,0.186304898 C6.32536,-0.0775351024 5.88109333,-0.0544151024 5.63130667,0.213051564 L0.191306667,5.99305156 C0.0317333333,6.15035823 0.00181333333,6.3008649 0,6.46043823 Z" id="arrow-left"></path>
            </g>
        </g>
    </g>
</svg>