<?xml version="1.0" encoding="UTF-8"?>
<svg width="17px" height="26px" viewBox="0 0 17 26" version="1.1" xmlns="http://www.w3.org/2000/svg" xmlns:xlink="http://www.w3.org/1999/xlink">
    <!-- Generator: Sketch 42 (36781) - http://www.bohemiancoding.com/sketch -->
    <title>map-pin</title>
    <desc>Created with Sketch.</desc>
    <defs></defs>
    <g id="Bar-Preview" stroke="none" stroke-width="1" fill="none" fill-rule="evenodd">
        <g id="Desktop" transform="translate(-304.000000, -365.000000)" fill="#D98383">
            <g id="icons/map-pin" transform="translate(304.000000, 365.000000)">
                <path d="M7.1137798,25.1943615 L7.1137798,25.1943615 C7.61156247,26.2685462 9.13896485,26.2685462 9.63632709,25.1943615 L15.9426953,11.9509882 C17.4553828,8.75197781 16.7919529,4.94839693 14.2841205,2.45023427 C12.7159369,0.882050702 10.5890091,0 8.37042877,0 C6.15142801,0 4.02492065,0.882050702 2.45631666,2.45023427 C-0.053197468,4.9530216 -0.71158231,8.76837437 0.814138374,11.9673848 L7.1137798,25.1943615 Z M8.37505344,3.98268174 L8.37505344,3.98268174 C10.0340487,3.98268174 11.5282376,4.98119004 12.1622378,6.5132171 C12.796238,8.04566457 12.4464448,9.80766385 11.2738807,10.9802279 C10.1013166,12.152792 8.33889693,12.5025852 6.80686988,11.8690054 C5.2744224,11.2350052 4.2759141,9.74039593 4.2759141,8.08182109 C4.2759141,5.82035744 6.10728343,3.98772684 8.36874708,3.98436344 L8.37505344,3.98268174 Z" id="map-pin"></path>
            </g>
        </g>
    </g>
</svg>